<?xml version="1.0" encoding="UTF-8"?>
<svg width="752pt" height="752pt" version="1.1" viewBox="0 0 752 752" xmlns="http://www.w3.org/2000/svg">
 <g fill="#ff1744">
  <path d="m489 528.73v-216.66h-225.99v216.66c0 20.27 16.434 36.703 36.703 36.703h152.54c20.27 0 36.703-16.434 36.703-36.703zm-171.44-45.086c0 1.9414-1.6094 3.5508-3.5508 3.5508-1.9414 0-3.5508-1.6094-3.5508-3.5508v-103.52c0-1.9414 1.6094-3.5508 3.5508-3.5508 1.9414 0 3.5508 1.6094 3.5508 3.5508zm61.992 19.512c0 1.9414-1.6094 3.5508-3.5508 3.5508s-3.5508-1.6094-3.5508-3.5508v-142.59c0-1.9414 1.6094-3.5508 3.5508-3.5508s3.5508 1.6094 3.5508 3.5508zm61.992-19.512c0 1.9414-1.6094 3.5508-3.5508 3.5508-1.9414 0-3.5508-1.6094-3.5508-3.5508v-103.52c0-1.9414 1.6094-3.5508 3.5508-3.5508 1.9414 0 3.5508 1.6094 3.5508 3.5508z"/>
  <path d="m301.36 226.82h149.27v-12.359c0-15.391-12.504-27.895-27.895-27.895h-93.484c-15.391 0-27.895 12.504-27.895 27.895z"/>
  <path d="m257.61 304.96h236.79c9.0469 0 16.387-7.3398 16.387-16.387v-38.219c0-9.0469-7.3398-16.387-16.387-16.387h-236.79c-9.0469 0-16.387 7.3398-16.387 16.387v38.219c0 9.0469 7.3398 16.387 16.387 16.387z"/>
 </g>
</svg>
