<?xml version="1.0" encoding="UTF-8"?>
<svg width="752pt" height="752pt" version="1.1" viewBox="0 0 752 752" xmlns="http://www.w3.org/2000/svg">
 <path d="m316.09 243.11h161.84v-22.859c0-11.551-4.7305-22.051-12.359-29.68-7.6289-7.6289-18.129-12.359-29.664-12.359h-215.66c-11.551 0-22.051 4.7305-29.68 12.359-7.6289 7.6289-12.359 18.129-12.359 29.68v215.66c0 11.535 4.7305 22.051 12.359 29.664 7.6289 7.6289 18.129 12.359 29.68 12.359h22.859v-161.84c0-20.09 8.2109-38.332 21.426-51.559 13.215-13.227 31.469-21.426 51.559-21.426zm192.8 0h22.859c20.09 0 38.332 8.2109 51.559 21.426 13.215 13.215 21.426 31.469 21.426 51.559v215.66c0 20.09-8.2109 38.332-21.426 51.559-13.227 13.227-31.469 21.426-51.559 21.426h-215.66c-20.09 0-38.332-8.2109-51.559-21.426-13.227-13.215-21.426-31.469-21.426-51.559v-22.859h-22.859c-20.09 0-38.332-8.2109-51.559-21.426-13.215-13.215-21.426-31.469-21.426-51.559v-215.66c0-20.09 8.2109-38.332 21.426-51.559 13.227-13.215 31.469-21.426 51.559-21.426h215.66c20.09 0 38.332 8.2109 51.559 21.426 13.227 13.227 21.426 31.469 21.426 51.559zm22.859 30.957h-215.66c-11.535 0-22.051 4.7305-29.664 12.359-7.6289 7.6289-12.359 18.129-12.359 29.68v215.66c0 11.535 4.7305 22.051 12.359 29.68 7.6289 7.6289 18.129 12.359 29.664 12.359h215.66c11.551 0 22.051-4.7305 29.68-12.359 7.6289-7.6289 12.359-18.129 12.359-29.68v-215.66c0-11.535-4.7305-22.051-12.359-29.68-7.6289-7.6289-18.129-12.359-29.68-12.359z" fill="#ff1705"/>
</svg>
