<?xml version="1.0" encoding="UTF-8"?>
<svg width="752pt" height="752pt" version="1.1" viewBox="0 0 752 752" xmlns="http://www.w3.org/2000/svg">
 <path d="m481.54 306.91h26.73v43.75l74.922-76.957-74.922-75.289v49.949h-26.73c-76.496 0-119.69 57.254-157.8 107.76-34.223 45.414-63.824 88.242-111.55 88.242l-43.383-0.003906v58.551h43.379c76.496 0 119.69-60.863 157.8-111.37 34.227-45.414 63.734-84.633 111.55-84.633zm-200.62 33.484c3.2383-4.2539 6.5664-8.6016 9.8984-13.043 8.1406-10.73 16.648-22.105 25.898-33.391-27.379-25.805-60.398-44.859-104.52-44.859h-43.383v58.551s12.301-0.55469 43.379 0c30.062 0.64453 48.934 13.039 68.727 32.742zm227.36 104.43h-26.73c-29.137 0-51.52-14.613-72.332-36.352-2.0352 2.7734-4.1641 5.5508-6.2891 8.3242-9.1562 12.117-18.961 25.16-29.785 38.016 28.117 27.656 62.156 48.559 108.41 48.559h26.73v50.227l74.922-75.293-74.922-76.957z" fill="#ff1744"/>
</svg>
